<?xml version="1.0" encoding="utf-8" standalone="no"?>
<!DOCTYPE svg PUBLIC "-//W3C//DTD SVG 1.1//EN"
  "http://www.w3.org/Graphics/SVG/1.1/DTD/svg11.dtd">
<svg xmlns:xlink="http://www.w3.org/1999/xlink" width="720pt" height="432pt" viewBox="0 0 720 432" xmlns="http://www.w3.org/2000/svg" version="1.1">
 <metadata>
  <rdf:RDF xmlns:dc="http://purl.org/dc/elements/1.1/" xmlns:cc="http://creativecommons.org/ns#" xmlns:rdf="http://www.w3.org/1999/02/22-rdf-syntax-ns#">
   <cc:Work>
    <dc:type rdf:resource="http://purl.org/dc/dcmitype/StillImage"/>
    <dc:date>2025-01-08T01:19:41.352757</dc:date>
    <dc:format>image/svg+xml</dc:format>
    <dc:creator>
     <cc:Agent>
      <dc:title>Matplotlib v3.9.2, https://matplotlib.org/</dc:title>
     </cc:Agent>
    </dc:creator>
   </cc:Work>
  </rdf:RDF>
 </metadata>
 <defs>
  <style type="text/css">*{stroke-linejoin: round; stroke-linecap: butt}</style>
 </defs>
 <g id="figure_1">
  <g id="patch_1">
   <path d="M 0 432 
L 720 432 
L 720 0 
L 0 0 
z
" style="fill: #ffffff"/>
  </g>
  <g id="axes_1">
   <g id="patch_2">
    <path d="M 90 384.48 
L 648 384.48 
L 648 51.84 
L 90 51.84 
z
" style="fill: #ffffff"/>
   </g>
   <g id="matplotlib.axis_1">
    <g id="xtick_1">
     <g id="line2d_1">
      <path d="M 90 384.48 
L 90 51.84 
" clip-path="url(#p845fce6e0b)" style="fill: none; stroke: #b0b0b0; stroke-width: 0.8; stroke-linecap: square"/>
     </g>
     <g id="line2d_2">
      <defs>
       <path id="mff2c56c9f5" d="M 0 0 
L 0 3.5 
" style="stroke: #000000; stroke-width: 0.8"/>
      </defs>
      <g>
       <use xlink:href="#mff2c56c9f5" x="90" y="384.48" style="stroke: #000000; stroke-width: 0.8"/>
      </g>
     </g>
     <g id="text_1">
      <!-- 0 -->
      <g transform="translate(86.81875 399.078438) scale(0.1 -0.1)">
       <defs>
        <path id="DejaVuSans-30" d="M 2034 4250 
Q 1547 4250 1301 3770 
Q 1056 3291 1056 2328 
Q 1056 1369 1301 889 
Q 1547 409 2034 409 
Q 2525 409 2770 889 
Q 3016 1369 3016 2328 
Q 3016 3291 2770 3770 
Q 2525 4250 2034 4250 
z
M 2034 4750 
Q 2819 4750 3233 4129 
Q 3647 3509 3647 2328 
Q 3647 1150 3233 529 
Q 2819 -91 2034 -91 
Q 1250 -91 836 529 
Q 422 1150 422 2328 
Q 422 3509 836 4129 
Q 1250 4750 2034 4750 
z
" transform="scale(0.015625)"/>
       </defs>
       <use xlink:href="#DejaVuSans-30"/>
      </g>
     </g>
    </g>
    <g id="xtick_2">
     <g id="line2d_3">
      <path d="M 155.647059 384.48 
L 155.647059 51.84 
" clip-path="url(#p845fce6e0b)" style="fill: none; stroke: #b0b0b0; stroke-width: 0.8; stroke-linecap: square"/>
     </g>
     <g id="line2d_4">
      <g>
       <use xlink:href="#mff2c56c9f5" x="155.647059" y="384.48" style="stroke: #000000; stroke-width: 0.8"/>
      </g>
     </g>
     <g id="text_2">
      <!-- 20 -->
      <g transform="translate(149.284559 399.078438) scale(0.1 -0.1)">
       <defs>
        <path id="DejaVuSans-32" d="M 1228 531 
L 3431 531 
L 3431 0 
L 469 0 
L 469 531 
Q 828 903 1448 1529 
Q 2069 2156 2228 2338 
Q 2531 2678 2651 2914 
Q 2772 3150 2772 3378 
Q 2772 3750 2511 3984 
Q 2250 4219 1831 4219 
Q 1534 4219 1204 4116 
Q 875 4013 500 3803 
L 500 4441 
Q 881 4594 1212 4672 
Q 1544 4750 1819 4750 
Q 2544 4750 2975 4387 
Q 3406 4025 3406 3419 
Q 3406 3131 3298 2873 
Q 3191 2616 2906 2266 
Q 2828 2175 2409 1742 
Q 1991 1309 1228 531 
z
" transform="scale(0.015625)"/>
       </defs>
       <use xlink:href="#DejaVuSans-32"/>
       <use xlink:href="#DejaVuSans-30" x="63.623047"/>
      </g>
     </g>
    </g>
    <g id="xtick_3">
     <g id="line2d_5">
      <path d="M 221.294118 384.48 
L 221.294118 51.84 
" clip-path="url(#p845fce6e0b)" style="fill: none; stroke: #b0b0b0; stroke-width: 0.8; stroke-linecap: square"/>
     </g>
     <g id="line2d_6">
      <g>
       <use xlink:href="#mff2c56c9f5" x="221.294118" y="384.48" style="stroke: #000000; stroke-width: 0.8"/>
      </g>
     </g>
     <g id="text_3">
      <!-- 40 -->
      <g transform="translate(214.931618 399.078438) scale(0.1 -0.1)">
       <defs>
        <path id="DejaVuSans-34" d="M 2419 4116 
L 825 1625 
L 2419 1625 
L 2419 4116 
z
M 2253 4666 
L 3047 4666 
L 3047 1625 
L 3713 1625 
L 3713 1100 
L 3047 1100 
L 3047 0 
L 2419 0 
L 2419 1100 
L 313 1100 
L 313 1709 
L 2253 4666 
z
" transform="scale(0.015625)"/>
       </defs>
       <use xlink:href="#DejaVuSans-34"/>
       <use xlink:href="#DejaVuSans-30" x="63.623047"/>
      </g>
     </g>
    </g>
    <g id="xtick_4">
     <g id="line2d_7">
      <path d="M 286.941176 384.48 
L 286.941176 51.84 
" clip-path="url(#p845fce6e0b)" style="fill: none; stroke: #b0b0b0; stroke-width: 0.8; stroke-linecap: square"/>
     </g>
     <g id="line2d_8">
      <g>
       <use xlink:href="#mff2c56c9f5" x="286.941176" y="384.48" style="stroke: #000000; stroke-width: 0.8"/>
      </g>
     </g>
     <g id="text_4">
      <!-- 60 -->
      <g transform="translate(280.578676 399.078438) scale(0.1 -0.1)">
       <defs>
        <path id="DejaVuSans-36" d="M 2113 2584 
Q 1688 2584 1439 2293 
Q 1191 2003 1191 1497 
Q 1191 994 1439 701 
Q 1688 409 2113 409 
Q 2538 409 2786 701 
Q 3034 994 3034 1497 
Q 3034 2003 2786 2293 
Q 2538 2584 2113 2584 
z
M 3366 4563 
L 3366 3988 
Q 3128 4100 2886 4159 
Q 2644 4219 2406 4219 
Q 1781 4219 1451 3797 
Q 1122 3375 1075 2522 
Q 1259 2794 1537 2939 
Q 1816 3084 2150 3084 
Q 2853 3084 3261 2657 
Q 3669 2231 3669 1497 
Q 3669 778 3244 343 
Q 2819 -91 2113 -91 
Q 1303 -91 875 529 
Q 447 1150 447 2328 
Q 447 3434 972 4092 
Q 1497 4750 2381 4750 
Q 2619 4750 2861 4703 
Q 3103 4656 3366 4563 
z
" transform="scale(0.015625)"/>
       </defs>
       <use xlink:href="#DejaVuSans-36"/>
       <use xlink:href="#DejaVuSans-30" x="63.623047"/>
      </g>
     </g>
    </g>
    <g id="xtick_5">
     <g id="line2d_9">
      <path d="M 352.588235 384.48 
L 352.588235 51.84 
" clip-path="url(#p845fce6e0b)" style="fill: none; stroke: #b0b0b0; stroke-width: 0.8; stroke-linecap: square"/>
     </g>
     <g id="line2d_10">
      <g>
       <use xlink:href="#mff2c56c9f5" x="352.588235" y="384.48" style="stroke: #000000; stroke-width: 0.8"/>
      </g>
     </g>
     <g id="text_5">
      <!-- 80 -->
      <g transform="translate(346.225735 399.078438) scale(0.1 -0.1)">
       <defs>
        <path id="DejaVuSans-38" d="M 2034 2216 
Q 1584 2216 1326 1975 
Q 1069 1734 1069 1313 
Q 1069 891 1326 650 
Q 1584 409 2034 409 
Q 2484 409 2743 651 
Q 3003 894 3003 1313 
Q 3003 1734 2745 1975 
Q 2488 2216 2034 2216 
z
M 1403 2484 
Q 997 2584 770 2862 
Q 544 3141 544 3541 
Q 544 4100 942 4425 
Q 1341 4750 2034 4750 
Q 2731 4750 3128 4425 
Q 3525 4100 3525 3541 
Q 3525 3141 3298 2862 
Q 3072 2584 2669 2484 
Q 3125 2378 3379 2068 
Q 3634 1759 3634 1313 
Q 3634 634 3220 271 
Q 2806 -91 2034 -91 
Q 1263 -91 848 271 
Q 434 634 434 1313 
Q 434 1759 690 2068 
Q 947 2378 1403 2484 
z
M 1172 3481 
Q 1172 3119 1398 2916 
Q 1625 2713 2034 2713 
Q 2441 2713 2670 2916 
Q 2900 3119 2900 3481 
Q 2900 3844 2670 4047 
Q 2441 4250 2034 4250 
Q 1625 4250 1398 4047 
Q 1172 3844 1172 3481 
z
" transform="scale(0.015625)"/>
       </defs>
       <use xlink:href="#DejaVuSans-38"/>
       <use xlink:href="#DejaVuSans-30" x="63.623047"/>
      </g>
     </g>
    </g>
    <g id="xtick_6">
     <g id="line2d_11">
      <path d="M 418.235294 384.48 
L 418.235294 51.84 
" clip-path="url(#p845fce6e0b)" style="fill: none; stroke: #b0b0b0; stroke-width: 0.8; stroke-linecap: square"/>
     </g>
     <g id="line2d_12">
      <g>
       <use xlink:href="#mff2c56c9f5" x="418.235294" y="384.48" style="stroke: #000000; stroke-width: 0.8"/>
      </g>
     </g>
     <g id="text_6">
      <!-- 100 -->
      <g transform="translate(408.691544 399.078438) scale(0.1 -0.1)">
       <defs>
        <path id="DejaVuSans-31" d="M 794 531 
L 1825 531 
L 1825 4091 
L 703 3866 
L 703 4441 
L 1819 4666 
L 2450 4666 
L 2450 531 
L 3481 531 
L 3481 0 
L 794 0 
L 794 531 
z
" transform="scale(0.015625)"/>
       </defs>
       <use xlink:href="#DejaVuSans-31"/>
       <use xlink:href="#DejaVuSans-30" x="63.623047"/>
       <use xlink:href="#DejaVuSans-30" x="127.246094"/>
      </g>
     </g>
    </g>
    <g id="xtick_7">
     <g id="line2d_13">
      <path d="M 483.882353 384.48 
L 483.882353 51.84 
" clip-path="url(#p845fce6e0b)" style="fill: none; stroke: #b0b0b0; stroke-width: 0.8; stroke-linecap: square"/>
     </g>
     <g id="line2d_14">
      <g>
       <use xlink:href="#mff2c56c9f5" x="483.882353" y="384.48" style="stroke: #000000; stroke-width: 0.8"/>
      </g>
     </g>
     <g id="text_7">
      <!-- 120 -->
      <g transform="translate(474.338603 399.078438) scale(0.1 -0.1)">
       <use xlink:href="#DejaVuSans-31"/>
       <use xlink:href="#DejaVuSans-32" x="63.623047"/>
       <use xlink:href="#DejaVuSans-30" x="127.246094"/>
      </g>
     </g>
    </g>
    <g id="xtick_8">
     <g id="line2d_15">
      <path d="M 549.529412 384.48 
L 549.529412 51.84 
" clip-path="url(#p845fce6e0b)" style="fill: none; stroke: #b0b0b0; stroke-width: 0.8; stroke-linecap: square"/>
     </g>
     <g id="line2d_16">
      <g>
       <use xlink:href="#mff2c56c9f5" x="549.529412" y="384.48" style="stroke: #000000; stroke-width: 0.8"/>
      </g>
     </g>
     <g id="text_8">
      <!-- 140 -->
      <g transform="translate(539.985662 399.078438) scale(0.1 -0.1)">
       <use xlink:href="#DejaVuSans-31"/>
       <use xlink:href="#DejaVuSans-34" x="63.623047"/>
       <use xlink:href="#DejaVuSans-30" x="127.246094"/>
      </g>
     </g>
    </g>
    <g id="xtick_9">
     <g id="line2d_17">
      <path d="M 615.176471 384.48 
L 615.176471 51.84 
" clip-path="url(#p845fce6e0b)" style="fill: none; stroke: #b0b0b0; stroke-width: 0.8; stroke-linecap: square"/>
     </g>
     <g id="line2d_18">
      <g>
       <use xlink:href="#mff2c56c9f5" x="615.176471" y="384.48" style="stroke: #000000; stroke-width: 0.8"/>
      </g>
     </g>
     <g id="text_9">
      <!-- 160 -->
      <g transform="translate(605.632721 399.078438) scale(0.1 -0.1)">
       <use xlink:href="#DejaVuSans-31"/>
       <use xlink:href="#DejaVuSans-36" x="63.623047"/>
       <use xlink:href="#DejaVuSans-30" x="127.246094"/>
      </g>
     </g>
    </g>
    <g id="text_10">
     <!-- Rank -->
     <g transform="translate(356.510156 412.756563) scale(0.1 -0.1)">
      <defs>
       <path id="DejaVuSans-52" d="M 2841 2188 
Q 3044 2119 3236 1894 
Q 3428 1669 3622 1275 
L 4263 0 
L 3584 0 
L 2988 1197 
Q 2756 1666 2539 1819 
Q 2322 1972 1947 1972 
L 1259 1972 
L 1259 0 
L 628 0 
L 628 4666 
L 2053 4666 
Q 2853 4666 3247 4331 
Q 3641 3997 3641 3322 
Q 3641 2881 3436 2590 
Q 3231 2300 2841 2188 
z
M 1259 4147 
L 1259 2491 
L 2053 2491 
Q 2509 2491 2742 2702 
Q 2975 2913 2975 3322 
Q 2975 3731 2742 3939 
Q 2509 4147 2053 4147 
L 1259 4147 
z
" transform="scale(0.015625)"/>
       <path id="DejaVuSans-61" d="M 2194 1759 
Q 1497 1759 1228 1600 
Q 959 1441 959 1056 
Q 959 750 1161 570 
Q 1363 391 1709 391 
Q 2188 391 2477 730 
Q 2766 1069 2766 1631 
L 2766 1759 
L 2194 1759 
z
M 3341 1997 
L 3341 0 
L 2766 0 
L 2766 531 
Q 2569 213 2275 61 
Q 1981 -91 1556 -91 
Q 1019 -91 701 211 
Q 384 513 384 1019 
Q 384 1609 779 1909 
Q 1175 2209 1959 2209 
L 2766 2209 
L 2766 2266 
Q 2766 2663 2505 2880 
Q 2244 3097 1772 3097 
Q 1472 3097 1187 3025 
Q 903 2953 641 2809 
L 641 3341 
Q 956 3463 1253 3523 
Q 1550 3584 1831 3584 
Q 2591 3584 2966 3190 
Q 3341 2797 3341 1997 
z
" transform="scale(0.015625)"/>
       <path id="DejaVuSans-6e" d="M 3513 2113 
L 3513 0 
L 2938 0 
L 2938 2094 
Q 2938 2591 2744 2837 
Q 2550 3084 2163 3084 
Q 1697 3084 1428 2787 
Q 1159 2491 1159 1978 
L 1159 0 
L 581 0 
L 581 3500 
L 1159 3500 
L 1159 2956 
Q 1366 3272 1645 3428 
Q 1925 3584 2291 3584 
Q 2894 3584 3203 3211 
Q 3513 2838 3513 2113 
z
" transform="scale(0.015625)"/>
       <path id="DejaVuSans-6b" d="M 581 4863 
L 1159 4863 
L 1159 1991 
L 2875 3500 
L 3609 3500 
L 1753 1863 
L 3688 0 
L 2938 0 
L 1159 1709 
L 1159 0 
L 581 0 
L 581 4863 
z
" transform="scale(0.015625)"/>
      </defs>
      <use xlink:href="#DejaVuSans-52"/>
      <use xlink:href="#DejaVuSans-61" x="67.232422"/>
      <use xlink:href="#DejaVuSans-6e" x="128.511719"/>
      <use xlink:href="#DejaVuSans-6b" x="191.890625"/>
     </g>
    </g>
   </g>
   <g id="matplotlib.axis_2">
    <g id="ytick_1">
     <g id="line2d_19">
      <path d="M 90 351.415385 
L 648 351.415385 
" clip-path="url(#p845fce6e0b)" style="fill: none; stroke: #b0b0b0; stroke-width: 0.8; stroke-linecap: square"/>
     </g>
     <g id="line2d_20">
      <defs>
       <path id="m23e7fdbbf5" d="M 0 0 
L -3.5 0 
" style="stroke: #000000; stroke-width: 0.8"/>
      </defs>
      <g>
       <use xlink:href="#m23e7fdbbf5" x="90" y="351.415385" style="stroke: #000000; stroke-width: 0.8"/>
      </g>
     </g>
     <g id="text_11">
      <!-- 20 -->
      <g transform="translate(70.275 355.214603) scale(0.1 -0.1)">
       <use xlink:href="#DejaVuSans-32"/>
       <use xlink:href="#DejaVuSans-30" x="63.623047"/>
      </g>
     </g>
    </g>
    <g id="ytick_2">
     <g id="line2d_21">
      <path d="M 90 280.301538 
L 648 280.301538 
" clip-path="url(#p845fce6e0b)" style="fill: none; stroke: #b0b0b0; stroke-width: 0.8; stroke-linecap: square"/>
     </g>
     <g id="line2d_22">
      <g>
       <use xlink:href="#m23e7fdbbf5" x="90" y="280.301538" style="stroke: #000000; stroke-width: 0.8"/>
      </g>
     </g>
     <g id="text_12">
      <!-- 40 -->
      <g transform="translate(70.275 284.100757) scale(0.1 -0.1)">
       <use xlink:href="#DejaVuSans-34"/>
       <use xlink:href="#DejaVuSans-30" x="63.623047"/>
      </g>
     </g>
    </g>
    <g id="ytick_3">
     <g id="line2d_23">
      <path d="M 90 209.187692 
L 648 209.187692 
" clip-path="url(#p845fce6e0b)" style="fill: none; stroke: #b0b0b0; stroke-width: 0.8; stroke-linecap: square"/>
     </g>
     <g id="line2d_24">
      <g>
       <use xlink:href="#m23e7fdbbf5" x="90" y="209.187692" style="stroke: #000000; stroke-width: 0.8"/>
      </g>
     </g>
     <g id="text_13">
      <!-- 60 -->
      <g transform="translate(70.275 212.986911) scale(0.1 -0.1)">
       <use xlink:href="#DejaVuSans-36"/>
       <use xlink:href="#DejaVuSans-30" x="63.623047"/>
      </g>
     </g>
    </g>
    <g id="ytick_4">
     <g id="line2d_25">
      <path d="M 90 138.073846 
L 648 138.073846 
" clip-path="url(#p845fce6e0b)" style="fill: none; stroke: #b0b0b0; stroke-width: 0.8; stroke-linecap: square"/>
     </g>
     <g id="line2d_26">
      <g>
       <use xlink:href="#m23e7fdbbf5" x="90" y="138.073846" style="stroke: #000000; stroke-width: 0.8"/>
      </g>
     </g>
     <g id="text_14">
      <!-- 80 -->
      <g transform="translate(70.275 141.873065) scale(0.1 -0.1)">
       <use xlink:href="#DejaVuSans-38"/>
       <use xlink:href="#DejaVuSans-30" x="63.623047"/>
      </g>
     </g>
    </g>
    <g id="ytick_5">
     <g id="line2d_27">
      <path d="M 90 66.96 
L 648 66.96 
" clip-path="url(#p845fce6e0b)" style="fill: none; stroke: #b0b0b0; stroke-width: 0.8; stroke-linecap: square"/>
     </g>
     <g id="line2d_28">
      <g>
       <use xlink:href="#m23e7fdbbf5" x="90" y="66.96" style="stroke: #000000; stroke-width: 0.8"/>
      </g>
     </g>
     <g id="text_15">
      <!-- 100 -->
      <g transform="translate(63.9125 70.759219) scale(0.1 -0.1)">
       <use xlink:href="#DejaVuSans-31"/>
       <use xlink:href="#DejaVuSans-30" x="63.623047"/>
       <use xlink:href="#DejaVuSans-30" x="127.246094"/>
      </g>
     </g>
    </g>
    <g id="text_16">
     <!-- Recognition Rate (%) -->
     <g transform="translate(57.832812 270.896719) rotate(-90) scale(0.1 -0.1)">
      <defs>
       <path id="DejaVuSans-65" d="M 3597 1894 
L 3597 1613 
L 953 1613 
Q 991 1019 1311 708 
Q 1631 397 2203 397 
Q 2534 397 2845 478 
Q 3156 559 3463 722 
L 3463 178 
Q 3153 47 2828 -22 
Q 2503 -91 2169 -91 
Q 1331 -91 842 396 
Q 353 884 353 1716 
Q 353 2575 817 3079 
Q 1281 3584 2069 3584 
Q 2775 3584 3186 3129 
Q 3597 2675 3597 1894 
z
M 3022 2063 
Q 3016 2534 2758 2815 
Q 2500 3097 2075 3097 
Q 1594 3097 1305 2825 
Q 1016 2553 972 2059 
L 3022 2063 
z
" transform="scale(0.015625)"/>
       <path id="DejaVuSans-63" d="M 3122 3366 
L 3122 2828 
Q 2878 2963 2633 3030 
Q 2388 3097 2138 3097 
Q 1578 3097 1268 2742 
Q 959 2388 959 1747 
Q 959 1106 1268 751 
Q 1578 397 2138 397 
Q 2388 397 2633 464 
Q 2878 531 3122 666 
L 3122 134 
Q 2881 22 2623 -34 
Q 2366 -91 2075 -91 
Q 1284 -91 818 406 
Q 353 903 353 1747 
Q 353 2603 823 3093 
Q 1294 3584 2113 3584 
Q 2378 3584 2631 3529 
Q 2884 3475 3122 3366 
z
" transform="scale(0.015625)"/>
       <path id="DejaVuSans-6f" d="M 1959 3097 
Q 1497 3097 1228 2736 
Q 959 2375 959 1747 
Q 959 1119 1226 758 
Q 1494 397 1959 397 
Q 2419 397 2687 759 
Q 2956 1122 2956 1747 
Q 2956 2369 2687 2733 
Q 2419 3097 1959 3097 
z
M 1959 3584 
Q 2709 3584 3137 3096 
Q 3566 2609 3566 1747 
Q 3566 888 3137 398 
Q 2709 -91 1959 -91 
Q 1206 -91 779 398 
Q 353 888 353 1747 
Q 353 2609 779 3096 
Q 1206 3584 1959 3584 
z
" transform="scale(0.015625)"/>
       <path id="DejaVuSans-67" d="M 2906 1791 
Q 2906 2416 2648 2759 
Q 2391 3103 1925 3103 
Q 1463 3103 1205 2759 
Q 947 2416 947 1791 
Q 947 1169 1205 825 
Q 1463 481 1925 481 
Q 2391 481 2648 825 
Q 2906 1169 2906 1791 
z
M 3481 434 
Q 3481 -459 3084 -895 
Q 2688 -1331 1869 -1331 
Q 1566 -1331 1297 -1286 
Q 1028 -1241 775 -1147 
L 775 -588 
Q 1028 -725 1275 -790 
Q 1522 -856 1778 -856 
Q 2344 -856 2625 -561 
Q 2906 -266 2906 331 
L 2906 616 
Q 2728 306 2450 153 
Q 2172 0 1784 0 
Q 1141 0 747 490 
Q 353 981 353 1791 
Q 353 2603 747 3093 
Q 1141 3584 1784 3584 
Q 2172 3584 2450 3431 
Q 2728 3278 2906 2969 
L 2906 3500 
L 3481 3500 
L 3481 434 
z
" transform="scale(0.015625)"/>
       <path id="DejaVuSans-69" d="M 603 3500 
L 1178 3500 
L 1178 0 
L 603 0 
L 603 3500 
z
M 603 4863 
L 1178 4863 
L 1178 4134 
L 603 4134 
L 603 4863 
z
" transform="scale(0.015625)"/>
       <path id="DejaVuSans-74" d="M 1172 4494 
L 1172 3500 
L 2356 3500 
L 2356 3053 
L 1172 3053 
L 1172 1153 
Q 1172 725 1289 603 
Q 1406 481 1766 481 
L 2356 481 
L 2356 0 
L 1766 0 
Q 1100 0 847 248 
Q 594 497 594 1153 
L 594 3053 
L 172 3053 
L 172 3500 
L 594 3500 
L 594 4494 
L 1172 4494 
z
" transform="scale(0.015625)"/>
       <path id="DejaVuSans-20" transform="scale(0.015625)"/>
       <path id="DejaVuSans-28" d="M 1984 4856 
Q 1566 4138 1362 3434 
Q 1159 2731 1159 2009 
Q 1159 1288 1364 580 
Q 1569 -128 1984 -844 
L 1484 -844 
Q 1016 -109 783 600 
Q 550 1309 550 2009 
Q 550 2706 781 3412 
Q 1013 4119 1484 4856 
L 1984 4856 
z
" transform="scale(0.015625)"/>
       <path id="DejaVuSans-25" d="M 4653 2053 
Q 4381 2053 4226 1822 
Q 4072 1591 4072 1178 
Q 4072 772 4226 539 
Q 4381 306 4653 306 
Q 4919 306 5073 539 
Q 5228 772 5228 1178 
Q 5228 1588 5073 1820 
Q 4919 2053 4653 2053 
z
M 4653 2450 
Q 5147 2450 5437 2106 
Q 5728 1763 5728 1178 
Q 5728 594 5436 251 
Q 5144 -91 4653 -91 
Q 4153 -91 3862 251 
Q 3572 594 3572 1178 
Q 3572 1766 3864 2108 
Q 4156 2450 4653 2450 
z
M 1428 4353 
Q 1159 4353 1004 4120 
Q 850 3888 850 3481 
Q 850 3069 1003 2837 
Q 1156 2606 1428 2606 
Q 1700 2606 1854 2837 
Q 2009 3069 2009 3481 
Q 2009 3884 1853 4118 
Q 1697 4353 1428 4353 
z
M 4250 4750 
L 4750 4750 
L 1831 -91 
L 1331 -91 
L 4250 4750 
z
M 1428 4750 
Q 1922 4750 2215 4408 
Q 2509 4066 2509 3481 
Q 2509 2891 2217 2550 
Q 1925 2209 1428 2209 
Q 931 2209 642 2551 
Q 353 2894 353 3481 
Q 353 4063 643 4406 
Q 934 4750 1428 4750 
z
" transform="scale(0.015625)"/>
       <path id="DejaVuSans-29" d="M 513 4856 
L 1013 4856 
Q 1481 4119 1714 3412 
Q 1947 2706 1947 2009 
Q 1947 1309 1714 600 
Q 1481 -109 1013 -844 
L 513 -844 
Q 928 -128 1133 580 
Q 1338 1288 1338 2009 
Q 1338 2731 1133 3434 
Q 928 4138 513 4856 
z
" transform="scale(0.015625)"/>
      </defs>
      <use xlink:href="#DejaVuSans-52"/>
      <use xlink:href="#DejaVuSans-65" x="64.982422"/>
      <use xlink:href="#DejaVuSans-63" x="126.505859"/>
      <use xlink:href="#DejaVuSans-6f" x="181.486328"/>
      <use xlink:href="#DejaVuSans-67" x="242.667969"/>
      <use xlink:href="#DejaVuSans-6e" x="306.144531"/>
      <use xlink:href="#DejaVuSans-69" x="369.523438"/>
      <use xlink:href="#DejaVuSans-74" x="397.306641"/>
      <use xlink:href="#DejaVuSans-69" x="436.515625"/>
      <use xlink:href="#DejaVuSans-6f" x="464.298828"/>
      <use xlink:href="#DejaVuSans-6e" x="525.480469"/>
      <use xlink:href="#DejaVuSans-20" x="588.859375"/>
      <use xlink:href="#DejaVuSans-52" x="620.646484"/>
      <use xlink:href="#DejaVuSans-61" x="687.878906"/>
      <use xlink:href="#DejaVuSans-74" x="749.158203"/>
      <use xlink:href="#DejaVuSans-65" x="788.367188"/>
      <use xlink:href="#DejaVuSans-20" x="849.890625"/>
      <use xlink:href="#DejaVuSans-28" x="881.677734"/>
      <use xlink:href="#DejaVuSans-25" x="920.691406"/>
      <use xlink:href="#DejaVuSans-29" x="1015.710938"/>
     </g>
    </g>
   </g>
   <g id="line2d_29">
    <path d="M 93.282353 369.36 
L 96.564706 349.421538 
L 99.847059 342.775385 
L 103.129412 329.483077 
L 109.694118 296.252308 
L 112.976471 287.944615 
L 116.258824 282.96 
L 126.105882 258.036923 
L 129.388235 251.390769 
L 132.670588 243.083077 
L 135.952941 243.083077 
L 139.235294 238.098462 
L 142.517647 231.452308 
L 145.8 223.144615 
L 152.364706 216.498462 
L 155.647059 211.513846 
L 158.929412 208.190769 
L 162.211765 201.544615 
L 165.494118 199.883077 
L 168.776471 193.236923 
L 172.058824 189.913846 
L 175.341176 189.913846 
L 178.623529 188.252308 
L 181.905882 188.252308 
L 185.188235 181.606154 
L 191.752941 174.96 
L 195.035294 169.975385 
L 201.6 166.652308 
L 208.164706 160.006154 
L 211.447059 160.006154 
L 218.011765 150.036923 
L 221.294118 148.375385 
L 227.858824 141.729231 
L 231.141176 141.729231 
L 234.423529 133.421538 
L 237.705882 131.76 
L 240.988235 131.76 
L 244.270588 126.775385 
L 250.835294 123.452308 
L 254.117647 123.452308 
L 257.4 121.790769 
L 270.529412 121.790769 
L 273.811765 116.806154 
L 277.094118 116.806154 
L 280.376471 115.144615 
L 283.658824 115.144615 
L 286.941176 113.483077 
L 300.070588 113.483077 
L 303.352941 111.821538 
L 306.635294 108.498462 
L 309.917647 106.836923 
L 316.482353 106.836923 
L 319.764706 105.175385 
L 323.047059 105.175385 
L 326.329412 103.513846 
L 339.458824 103.513846 
L 346.023529 100.190769 
L 359.152941 100.190769 
L 375.564706 91.883077 
L 405.105882 91.883077 
L 408.388235 90.221538 
L 414.952941 90.221538 
L 418.235294 86.898462 
L 421.517647 86.898462 
L 424.8 85.236923 
L 428.082353 85.236923 
L 431.364706 83.575385 
L 444.494118 83.575385 
L 451.058824 80.252308 
L 464.188235 80.252308 
L 467.470588 76.929231 
L 487.164706 76.929231 
L 490.447059 75.267692 
L 506.858824 75.267692 
L 510.141176 73.606154 
L 526.552941 73.606154 
L 529.835294 71.944615 
L 542.964706 71.944615 
L 546.247059 70.283077 
L 559.376471 70.283077 
L 565.941176 66.96 
L 648 66.96 
L 648 66.96 
" clip-path="url(#p845fce6e0b)" style="fill: none; stroke: #0000ff; stroke-width: 2; stroke-linecap: square"/>
   </g>
   <g id="line2d_30">
    <path d="M 93.282353 327.821538 
L 96.564706 301.236923 
L 99.847059 279.636923 
L 103.129412 263.021538 
L 106.411765 259.698462 
L 109.694118 244.744615 
L 116.258824 231.452308 
L 122.823529 214.836923 
L 126.105882 209.852308 
L 129.388235 203.206154 
L 132.670588 198.221538 
L 135.952941 191.575385 
L 139.235294 183.267692 
L 145.8 173.298462 
L 149.082353 169.975385 
L 152.364706 163.329231 
L 155.647059 161.667692 
L 162.211765 155.021538 
L 165.494118 150.036923 
L 168.776471 148.375385 
L 172.058824 145.052308 
L 175.341176 140.067692 
L 178.623529 140.067692 
L 181.905882 135.083077 
L 185.188235 135.083077 
L 188.470588 130.098462 
L 191.752941 128.436923 
L 195.035294 128.436923 
L 198.317647 126.775385 
L 204.882353 126.775385 
L 208.164706 125.113846 
L 211.447059 125.113846 
L 214.729412 123.452308 
L 224.576471 113.483077 
L 234.423529 113.483077 
L 240.988235 110.16 
L 244.270588 110.16 
L 247.552941 108.498462 
L 254.117647 108.498462 
L 260.682353 101.852308 
L 263.964706 101.852308 
L 267.247059 98.529231 
L 277.094118 93.544615 
L 283.658824 93.544615 
L 286.941176 91.883077 
L 293.505882 91.883077 
L 296.788235 90.221538 
L 306.635294 90.221538 
L 309.917647 88.56 
L 313.2 85.236923 
L 319.764706 85.236923 
L 323.047059 83.575385 
L 332.894118 83.575385 
L 336.176471 81.913846 
L 369 81.913846 
L 372.282353 80.252308 
L 378.847059 80.252308 
L 385.411765 76.929231 
L 408.388235 76.929231 
L 411.670588 75.267692 
L 470.752941 75.267692 
L 477.317647 71.944615 
L 513.423529 71.944615 
L 516.705882 70.283077 
L 519.988235 70.283077 
L 523.270588 68.621538 
L 536.4 68.621538 
L 539.682353 66.96 
L 648 66.96 
L 648 66.96 
" clip-path="url(#p845fce6e0b)" style="fill: none; stroke: #ff0000; stroke-width: 2; stroke-linecap: square"/>
   </g>
   <g id="line2d_31">
    <path d="M 93.282353 341.113846 
L 96.564706 311.206154 
L 99.847059 289.606154 
L 103.129412 276.313846 
L 109.694118 256.375385 
L 112.976471 241.421538 
L 116.258824 224.806154 
L 119.541176 223.144615 
L 122.823529 213.175385 
L 126.105882 208.190769 
L 129.388235 206.529231 
L 132.670588 201.544615 
L 135.952941 194.898462 
L 145.8 184.929231 
L 149.082353 184.929231 
L 152.364706 178.283077 
L 158.929412 168.313846 
L 162.211765 168.313846 
L 165.494118 161.667692 
L 172.058824 158.344615 
L 175.341176 155.021538 
L 178.623529 150.036923 
L 181.905882 148.375385 
L 185.188235 148.375385 
L 188.470588 145.052308 
L 191.752941 140.067692 
L 195.035294 138.406154 
L 201.6 128.436923 
L 204.882353 125.113846 
L 208.164706 123.452308 
L 211.447059 120.129231 
L 221.294118 120.129231 
L 227.858824 113.483077 
L 237.705882 113.483077 
L 240.988235 111.821538 
L 247.552941 111.821538 
L 250.835294 110.16 
L 254.117647 106.836923 
L 260.682353 103.513846 
L 270.529412 103.513846 
L 273.811765 101.852308 
L 277.094118 101.852308 
L 280.376471 100.190769 
L 286.941176 100.190769 
L 290.223529 98.529231 
L 300.070588 98.529231 
L 303.352941 95.206154 
L 306.635294 93.544615 
L 319.764706 93.544615 
L 326.329412 90.221538 
L 339.458824 90.221538 
L 342.741176 85.236923 
L 346.023529 83.575385 
L 352.588235 83.575385 
L 359.152941 80.252308 
L 365.717647 80.252308 
L 369 78.590769 
L 375.564706 78.590769 
L 378.847059 76.929231 
L 395.258824 76.929231 
L 398.541176 75.267692 
L 441.211765 75.267692 
L 444.494118 73.606154 
L 474.035294 73.606154 
L 477.317647 71.944615 
L 487.164706 71.944615 
L 490.447059 70.283077 
L 516.705882 70.283077 
L 519.988235 68.621538 
L 539.682353 68.621538 
L 542.964706 66.96 
L 648 66.96 
L 648 66.96 
" clip-path="url(#p845fce6e0b)" style="fill: none; stroke: #008000; stroke-width: 2; stroke-linecap: square"/>
   </g>
   <g id="line2d_32">
    <path d="M 93.282353 327.829888 
L 96.564706 299.241407 
L 103.129412 259.932246 
L 106.411765 249.211566 
L 109.694118 242.064445 
L 116.258824 220.623085 
L 119.541176 202.755284 
L 122.823529 195.608164 
L 126.105882 192.034604 
L 129.388235 177.740363 
L 132.670588 168.806463 
L 135.952941 161.659343 
L 139.235294 159.872563 
L 142.517647 154.512223 
L 149.082353 150.938663 
L 152.364706 147.365102 
L 162.211765 142.004762 
L 165.494118 142.004762 
L 172.058824 138.431202 
L 178.623529 131.284082 
L 181.905882 129.497302 
L 188.470588 129.497302 
L 191.752941 124.136962 
L 195.035294 122.350182 
L 198.317647 118.776622 
L 201.6 116.989842 
L 204.882353 113.416281 
L 208.164706 113.416281 
L 211.447059 111.629501 
L 214.729412 111.629501 
L 218.011765 108.055941 
L 224.576471 108.055941 
L 227.858824 106.269161 
L 231.141176 106.269161 
L 237.705882 102.695601 
L 250.835294 102.695601 
L 254.117647 99.122041 
L 257.4 99.122041 
L 263.964706 95.548481 
L 267.247059 91.974921 
L 270.529412 91.974921 
L 277.094118 88.401361 
L 283.658824 88.401361 
L 286.941176 84.827801 
L 313.2 84.827801 
L 316.482353 83.04102 
L 346.023529 83.04102 
L 352.588235 79.46746 
L 375.564706 79.46746 
L 382.129412 75.8939 
L 398.541176 75.8939 
L 401.823529 74.10712 
L 408.388235 74.10712 
L 411.670588 72.32034 
L 434.647059 72.32034 
L 437.929412 70.53356 
L 467.470588 70.53356 
L 470.752941 68.74678 
L 519.988235 68.74678 
L 523.270588 66.96 
L 648 66.96 
L 648 66.96 
" clip-path="url(#p845fce6e0b)" style="fill: none; stroke: #bfbf00; stroke-width: 2; stroke-linecap: square"/>
   </g>
   <g id="line2d_33">
    <path d="M 93.282353 293.881067 
L 96.564706 272.439706 
L 99.847059 247.424785 
L 103.129412 231.343765 
L 106.411765 211.689184 
L 109.694118 199.181724 
L 112.976471 192.034604 
L 116.258824 186.674264 
L 119.541176 179.527143 
L 122.823529 174.166803 
L 126.105882 172.380023 
L 129.388235 168.806463 
L 135.952941 165.232903 
L 142.517647 158.085783 
L 149.082353 158.085783 
L 152.364706 150.938663 
L 168.776471 142.004762 
L 172.058824 138.431202 
L 178.623529 138.431202 
L 181.905882 133.070862 
L 188.470588 133.070862 
L 191.752941 129.497302 
L 201.6 124.136962 
L 204.882353 124.136962 
L 208.164706 122.350182 
L 211.447059 122.350182 
L 221.294118 116.989842 
L 224.576471 111.629501 
L 231.141176 111.629501 
L 234.423529 109.842721 
L 237.705882 109.842721 
L 240.988235 108.055941 
L 254.117647 108.055941 
L 257.4 104.482381 
L 263.964706 104.482381 
L 267.247059 102.695601 
L 277.094118 102.695601 
L 280.376471 100.908821 
L 293.505882 100.908821 
L 296.788235 99.122041 
L 303.352941 99.122041 
L 306.635294 97.335261 
L 309.917647 93.761701 
L 319.764706 93.761701 
L 323.047059 91.974921 
L 329.611765 91.974921 
L 332.894118 90.188141 
L 336.176471 90.188141 
L 339.458824 86.614581 
L 346.023529 86.614581 
L 349.305882 84.827801 
L 352.588235 84.827801 
L 359.152941 81.25424 
L 382.129412 81.25424 
L 385.411765 79.46746 
L 408.388235 79.46746 
L 411.670588 77.68068 
L 421.517647 77.68068 
L 424.8 75.8939 
L 434.647059 75.8939 
L 437.929412 74.10712 
L 460.905882 74.10712 
L 464.188235 72.32034 
L 474.035294 72.32034 
L 480.6 68.74678 
L 497.011765 68.74678 
L 500.294118 66.96 
L 648 66.96 
L 648 66.96 
" clip-path="url(#p845fce6e0b)" style="fill: none; stroke: #bf00bf; stroke-width: 2; stroke-linecap: square"/>
   </g>
   <g id="line2d_34">
    <path d="M 93.282353 368.925829 
L 96.564706 342.124128 
L 99.847059 327.829888 
L 103.129412 306.388527 
L 106.411765 292.094287 
L 109.694118 281.373606 
L 112.976471 274.226486 
L 116.258824 258.145466 
L 119.541176 254.571906 
L 122.823529 249.211566 
L 126.105882 240.277665 
L 129.388235 233.130545 
L 132.670588 229.556985 
L 135.952941 217.049525 
L 139.235294 209.902404 
L 142.517647 208.115624 
L 145.8 200.968504 
L 149.082353 195.608164 
L 152.364706 195.608164 
L 155.647059 192.034604 
L 158.929412 183.100704 
L 162.211765 175.953583 
L 172.058824 175.953583 
L 175.341176 174.166803 
L 178.623529 168.806463 
L 181.905882 165.232903 
L 185.188235 158.085783 
L 188.470588 156.299003 
L 195.035294 149.151882 
L 198.317647 149.151882 
L 201.6 147.365102 
L 204.882353 142.004762 
L 208.164706 140.217982 
L 211.447059 136.644422 
L 214.729412 136.644422 
L 218.011765 133.070862 
L 221.294118 125.923742 
L 224.576471 125.923742 
L 227.858824 122.350182 
L 231.141176 122.350182 
L 234.423529 120.563402 
L 237.705882 120.563402 
L 240.988235 118.776622 
L 250.835294 118.776622 
L 254.117647 116.989842 
L 270.529412 116.989842 
L 273.811765 115.203061 
L 286.941176 115.203061 
L 293.505882 108.055941 
L 296.788235 108.055941 
L 300.070588 104.482381 
L 303.352941 102.695601 
L 306.635294 102.695601 
L 309.917647 99.122041 
L 336.176471 99.122041 
L 346.023529 93.761701 
L 352.588235 93.761701 
L 362.435294 88.401361 
L 375.564706 88.401361 
L 378.847059 86.614581 
L 382.129412 86.614581 
L 385.411765 84.827801 
L 391.976471 84.827801 
L 395.258824 81.25424 
L 401.823529 77.68068 
L 428.082353 77.68068 
L 431.364706 75.8939 
L 451.058824 75.8939 
L 454.341176 74.10712 
L 529.835294 74.10712 
L 536.4 70.53356 
L 539.682353 70.53356 
L 542.964706 68.74678 
L 611.894118 68.74678 
L 615.176471 66.96 
L 648 66.96 
L 648 66.96 
" clip-path="url(#p845fce6e0b)" style="fill: none; stroke: #00bfbf; stroke-width: 2; stroke-linecap: square"/>
   </g>
   <g id="line2d_35">
    <path d="M 93.282353 78.590769 
L 96.564706 75.267692 
L 99.847059 73.606154 
L 106.411765 73.606154 
L 109.694118 71.944615 
L 162.211765 71.944615 
L 165.494118 70.283077 
L 339.458824 70.283077 
L 342.741176 68.621538 
L 385.411765 68.621538 
L 388.694118 66.96 
L 684.105882 66.96 
L 684.105882 66.96 
" clip-path="url(#p845fce6e0b)" style="fill: none; stroke: #ffa500; stroke-width: 2; stroke-linecap: square"/>
   </g>
   <g id="line2d_36">
    <path d="M 93.282353 93.544615 
L 96.564706 80.252308 
L 99.847059 78.590769 
L 103.129412 75.267692 
L 139.235294 75.267692 
L 142.517647 73.606154 
L 145.8 73.606154 
L 149.082353 71.944615 
L 234.423529 71.944615 
L 237.705882 70.283077 
L 280.376471 70.283077 
L 283.658824 68.621538 
L 579.070588 68.621538 
L 582.352941 66.96 
L 684.105882 66.96 
L 684.105882 66.96 
" clip-path="url(#p845fce6e0b)" style="fill: none; stroke: #00ff00; stroke-width: 2; stroke-linecap: square"/>
   </g>
   <g id="line2d_37">
    <path d="M 93.282353 93.544615 
L 96.564706 81.913846 
L 106.411765 76.929231 
L 126.105882 76.929231 
L 129.388235 75.267692 
L 142.517647 75.267692 
L 145.8 73.606154 
L 162.211765 73.606154 
L 165.494118 71.944615 
L 221.294118 71.944615 
L 224.576471 70.283077 
L 273.811765 70.283077 
L 277.094118 68.621538 
L 339.458824 68.621538 
L 342.741176 66.96 
L 684.105882 66.96 
L 684.105882 66.96 
" clip-path="url(#p845fce6e0b)" style="fill: none; stroke: #ffc0cb; stroke-width: 2; stroke-linecap: square"/>
   </g>
   <g id="line2d_38">
    <path d="M 93.282353 90.221538 
L 96.564706 81.913846 
L 103.129412 75.267692 
L 109.694118 75.267692 
L 112.976471 73.606154 
L 126.105882 73.606154 
L 129.388235 71.944615 
L 135.952941 71.944615 
L 139.235294 70.283077 
L 260.682353 70.283077 
L 263.964706 68.621538 
L 500.294118 68.621538 
L 503.576471 66.96 
L 684.105882 66.96 
L 684.105882 66.96 
" clip-path="url(#p845fce6e0b)" style="fill: none; stroke: #a52a2a; stroke-width: 2; stroke-linecap: square"/>
   </g>
   <g id="patch_3">
    <path d="M 90 384.48 
L 90 51.84 
" style="fill: none; stroke: #000000; stroke-width: 0.8; stroke-linejoin: miter; stroke-linecap: square"/>
   </g>
   <g id="patch_4">
    <path d="M 648 384.48 
L 648 51.84 
" style="fill: none; stroke: #000000; stroke-width: 0.8; stroke-linejoin: miter; stroke-linecap: square"/>
   </g>
   <g id="patch_5">
    <path d="M 90 384.48 
L 648 384.48 
" style="fill: none; stroke: #000000; stroke-width: 0.8; stroke-linejoin: miter; stroke-linecap: square"/>
   </g>
   <g id="patch_6">
    <path d="M 90 51.84 
L 648 51.84 
" style="fill: none; stroke: #000000; stroke-width: 0.8; stroke-linejoin: miter; stroke-linecap: square"/>
   </g>
   <g id="text_17">
    <!-- Cumulative Match Characteristic (CMC) Curve -->
    <g transform="translate(231.147188 45.84) scale(0.12 -0.12)">
     <defs>
      <path id="DejaVuSans-43" d="M 4122 4306 
L 4122 3641 
Q 3803 3938 3442 4084 
Q 3081 4231 2675 4231 
Q 1875 4231 1450 3742 
Q 1025 3253 1025 2328 
Q 1025 1406 1450 917 
Q 1875 428 2675 428 
Q 3081 428 3442 575 
Q 3803 722 4122 1019 
L 4122 359 
Q 3791 134 3420 21 
Q 3050 -91 2638 -91 
Q 1578 -91 968 557 
Q 359 1206 359 2328 
Q 359 3453 968 4101 
Q 1578 4750 2638 4750 
Q 3056 4750 3426 4639 
Q 3797 4528 4122 4306 
z
" transform="scale(0.015625)"/>
      <path id="DejaVuSans-75" d="M 544 1381 
L 544 3500 
L 1119 3500 
L 1119 1403 
Q 1119 906 1312 657 
Q 1506 409 1894 409 
Q 2359 409 2629 706 
Q 2900 1003 2900 1516 
L 2900 3500 
L 3475 3500 
L 3475 0 
L 2900 0 
L 2900 538 
Q 2691 219 2414 64 
Q 2138 -91 1772 -91 
Q 1169 -91 856 284 
Q 544 659 544 1381 
z
M 1991 3584 
L 1991 3584 
z
" transform="scale(0.015625)"/>
      <path id="DejaVuSans-6d" d="M 3328 2828 
Q 3544 3216 3844 3400 
Q 4144 3584 4550 3584 
Q 5097 3584 5394 3201 
Q 5691 2819 5691 2113 
L 5691 0 
L 5113 0 
L 5113 2094 
Q 5113 2597 4934 2840 
Q 4756 3084 4391 3084 
Q 3944 3084 3684 2787 
Q 3425 2491 3425 1978 
L 3425 0 
L 2847 0 
L 2847 2094 
Q 2847 2600 2669 2842 
Q 2491 3084 2119 3084 
Q 1678 3084 1418 2786 
Q 1159 2488 1159 1978 
L 1159 0 
L 581 0 
L 581 3500 
L 1159 3500 
L 1159 2956 
Q 1356 3278 1631 3431 
Q 1906 3584 2284 3584 
Q 2666 3584 2933 3390 
Q 3200 3197 3328 2828 
z
" transform="scale(0.015625)"/>
      <path id="DejaVuSans-6c" d="M 603 4863 
L 1178 4863 
L 1178 0 
L 603 0 
L 603 4863 
z
" transform="scale(0.015625)"/>
      <path id="DejaVuSans-76" d="M 191 3500 
L 800 3500 
L 1894 563 
L 2988 3500 
L 3597 3500 
L 2284 0 
L 1503 0 
L 191 3500 
z
" transform="scale(0.015625)"/>
      <path id="DejaVuSans-4d" d="M 628 4666 
L 1569 4666 
L 2759 1491 
L 3956 4666 
L 4897 4666 
L 4897 0 
L 4281 0 
L 4281 4097 
L 3078 897 
L 2444 897 
L 1241 4097 
L 1241 0 
L 628 0 
L 628 4666 
z
" transform="scale(0.015625)"/>
      <path id="DejaVuSans-68" d="M 3513 2113 
L 3513 0 
L 2938 0 
L 2938 2094 
Q 2938 2591 2744 2837 
Q 2550 3084 2163 3084 
Q 1697 3084 1428 2787 
Q 1159 2491 1159 1978 
L 1159 0 
L 581 0 
L 581 4863 
L 1159 4863 
L 1159 2956 
Q 1366 3272 1645 3428 
Q 1925 3584 2291 3584 
Q 2894 3584 3203 3211 
Q 3513 2838 3513 2113 
z
" transform="scale(0.015625)"/>
      <path id="DejaVuSans-72" d="M 2631 2963 
Q 2534 3019 2420 3045 
Q 2306 3072 2169 3072 
Q 1681 3072 1420 2755 
Q 1159 2438 1159 1844 
L 1159 0 
L 581 0 
L 581 3500 
L 1159 3500 
L 1159 2956 
Q 1341 3275 1631 3429 
Q 1922 3584 2338 3584 
Q 2397 3584 2469 3576 
Q 2541 3569 2628 3553 
L 2631 2963 
z
" transform="scale(0.015625)"/>
      <path id="DejaVuSans-73" d="M 2834 3397 
L 2834 2853 
Q 2591 2978 2328 3040 
Q 2066 3103 1784 3103 
Q 1356 3103 1142 2972 
Q 928 2841 928 2578 
Q 928 2378 1081 2264 
Q 1234 2150 1697 2047 
L 1894 2003 
Q 2506 1872 2764 1633 
Q 3022 1394 3022 966 
Q 3022 478 2636 193 
Q 2250 -91 1575 -91 
Q 1294 -91 989 -36 
Q 684 19 347 128 
L 347 722 
Q 666 556 975 473 
Q 1284 391 1588 391 
Q 1994 391 2212 530 
Q 2431 669 2431 922 
Q 2431 1156 2273 1281 
Q 2116 1406 1581 1522 
L 1381 1569 
Q 847 1681 609 1914 
Q 372 2147 372 2553 
Q 372 3047 722 3315 
Q 1072 3584 1716 3584 
Q 2034 3584 2315 3537 
Q 2597 3491 2834 3397 
z
" transform="scale(0.015625)"/>
     </defs>
     <use xlink:href="#DejaVuSans-43"/>
     <use xlink:href="#DejaVuSans-75" x="69.824219"/>
     <use xlink:href="#DejaVuSans-6d" x="133.203125"/>
     <use xlink:href="#DejaVuSans-75" x="230.615234"/>
     <use xlink:href="#DejaVuSans-6c" x="293.994141"/>
     <use xlink:href="#DejaVuSans-61" x="321.777344"/>
     <use xlink:href="#DejaVuSans-74" x="383.056641"/>
     <use xlink:href="#DejaVuSans-69" x="422.265625"/>
     <use xlink:href="#DejaVuSans-76" x="450.048828"/>
     <use xlink:href="#DejaVuSans-65" x="509.228516"/>
     <use xlink:href="#DejaVuSans-20" x="570.751953"/>
     <use xlink:href="#DejaVuSans-4d" x="602.539062"/>
     <use xlink:href="#DejaVuSans-61" x="688.818359"/>
     <use xlink:href="#DejaVuSans-74" x="750.097656"/>
     <use xlink:href="#DejaVuSans-63" x="789.306641"/>
     <use xlink:href="#DejaVuSans-68" x="844.287109"/>
     <use xlink:href="#DejaVuSans-20" x="907.666016"/>
     <use xlink:href="#DejaVuSans-43" x="939.453125"/>
     <use xlink:href="#DejaVuSans-68" x="1009.277344"/>
     <use xlink:href="#DejaVuSans-61" x="1072.65625"/>
     <use xlink:href="#DejaVuSans-72" x="1133.935547"/>
     <use xlink:href="#DejaVuSans-61" x="1175.048828"/>
     <use xlink:href="#DejaVuSans-63" x="1236.328125"/>
     <use xlink:href="#DejaVuSans-74" x="1291.308594"/>
     <use xlink:href="#DejaVuSans-65" x="1330.517578"/>
     <use xlink:href="#DejaVuSans-72" x="1392.041016"/>
     <use xlink:href="#DejaVuSans-69" x="1433.154297"/>
     <use xlink:href="#DejaVuSans-73" x="1460.9375"/>
     <use xlink:href="#DejaVuSans-74" x="1513.037109"/>
     <use xlink:href="#DejaVuSans-69" x="1552.246094"/>
     <use xlink:href="#DejaVuSans-63" x="1580.029297"/>
     <use xlink:href="#DejaVuSans-20" x="1635.009766"/>
     <use xlink:href="#DejaVuSans-28" x="1666.796875"/>
     <use xlink:href="#DejaVuSans-43" x="1705.810547"/>
     <use xlink:href="#DejaVuSans-4d" x="1775.634766"/>
     <use xlink:href="#DejaVuSans-43" x="1861.914062"/>
     <use xlink:href="#DejaVuSans-29" x="1931.738281"/>
     <use xlink:href="#DejaVuSans-20" x="1970.751953"/>
     <use xlink:href="#DejaVuSans-43" x="2002.539062"/>
     <use xlink:href="#DejaVuSans-75" x="2072.363281"/>
     <use xlink:href="#DejaVuSans-72" x="2135.742188"/>
     <use xlink:href="#DejaVuSans-76" x="2176.855469"/>
     <use xlink:href="#DejaVuSans-65" x="2236.035156"/>
    </g>
   </g>
   <g id="legend_1">
    <g id="patch_7">
     <path d="M 350.845312 379.48 
L 641 379.48 
Q 643 379.48 643 377.48 
L 643 231.69875 
Q 643 229.69875 641 229.69875 
L 350.845312 229.69875 
Q 348.845312 229.69875 348.845312 231.69875 
L 348.845312 377.48 
Q 348.845312 379.48 350.845312 379.48 
z
" style="fill: #ffffff; opacity: 0.8; stroke: #cccccc; stroke-linejoin: miter"/>
    </g>
    <g id="line2d_39">
     <path d="M 352.845312 237.797188 
L 362.845312 237.797188 
L 372.845312 237.797188 
" style="fill: none; stroke: #0000ff; stroke-width: 2; stroke-linecap: square"/>
    </g>
    <g id="text_18">
     <!-- Local Binary Patterns (Full Image) -->
     <g transform="translate(380.845312 241.297188) scale(0.1 -0.1)">
      <defs>
       <path id="DejaVuSans-4c" d="M 628 4666 
L 1259 4666 
L 1259 531 
L 3531 531 
L 3531 0 
L 628 0 
L 628 4666 
z
" transform="scale(0.015625)"/>
       <path id="DejaVuSans-42" d="M 1259 2228 
L 1259 519 
L 2272 519 
Q 2781 519 3026 730 
Q 3272 941 3272 1375 
Q 3272 1813 3026 2020 
Q 2781 2228 2272 2228 
L 1259 2228 
z
M 1259 4147 
L 1259 2741 
L 2194 2741 
Q 2656 2741 2882 2914 
Q 3109 3088 3109 3444 
Q 3109 3797 2882 3972 
Q 2656 4147 2194 4147 
L 1259 4147 
z
M 628 4666 
L 2241 4666 
Q 2963 4666 3353 4366 
Q 3744 4066 3744 3513 
Q 3744 3084 3544 2831 
Q 3344 2578 2956 2516 
Q 3422 2416 3680 2098 
Q 3938 1781 3938 1306 
Q 3938 681 3513 340 
Q 3088 0 2303 0 
L 628 0 
L 628 4666 
z
" transform="scale(0.015625)"/>
       <path id="DejaVuSans-79" d="M 2059 -325 
Q 1816 -950 1584 -1140 
Q 1353 -1331 966 -1331 
L 506 -1331 
L 506 -850 
L 844 -850 
Q 1081 -850 1212 -737 
Q 1344 -625 1503 -206 
L 1606 56 
L 191 3500 
L 800 3500 
L 1894 763 
L 2988 3500 
L 3597 3500 
L 2059 -325 
z
" transform="scale(0.015625)"/>
       <path id="DejaVuSans-50" d="M 1259 4147 
L 1259 2394 
L 2053 2394 
Q 2494 2394 2734 2622 
Q 2975 2850 2975 3272 
Q 2975 3691 2734 3919 
Q 2494 4147 2053 4147 
L 1259 4147 
z
M 628 4666 
L 2053 4666 
Q 2838 4666 3239 4311 
Q 3641 3956 3641 3272 
Q 3641 2581 3239 2228 
Q 2838 1875 2053 1875 
L 1259 1875 
L 1259 0 
L 628 0 
L 628 4666 
z
" transform="scale(0.015625)"/>
       <path id="DejaVuSans-46" d="M 628 4666 
L 3309 4666 
L 3309 4134 
L 1259 4134 
L 1259 2759 
L 3109 2759 
L 3109 2228 
L 1259 2228 
L 1259 0 
L 628 0 
L 628 4666 
z
" transform="scale(0.015625)"/>
       <path id="DejaVuSans-49" d="M 628 4666 
L 1259 4666 
L 1259 0 
L 628 0 
L 628 4666 
z
" transform="scale(0.015625)"/>
      </defs>
      <use xlink:href="#DejaVuSans-4c"/>
      <use xlink:href="#DejaVuSans-6f" x="53.962891"/>
      <use xlink:href="#DejaVuSans-63" x="115.144531"/>
      <use xlink:href="#DejaVuSans-61" x="170.125"/>
      <use xlink:href="#DejaVuSans-6c" x="231.404297"/>
      <use xlink:href="#DejaVuSans-20" x="259.1875"/>
      <use xlink:href="#DejaVuSans-42" x="290.974609"/>
      <use xlink:href="#DejaVuSans-69" x="359.578125"/>
      <use xlink:href="#DejaVuSans-6e" x="387.361328"/>
      <use xlink:href="#DejaVuSans-61" x="450.740234"/>
      <use xlink:href="#DejaVuSans-72" x="512.019531"/>
      <use xlink:href="#DejaVuSans-79" x="553.132812"/>
      <use xlink:href="#DejaVuSans-20" x="612.3125"/>
      <use xlink:href="#DejaVuSans-50" x="644.099609"/>
      <use xlink:href="#DejaVuSans-61" x="699.902344"/>
      <use xlink:href="#DejaVuSans-74" x="761.181641"/>
      <use xlink:href="#DejaVuSans-74" x="800.390625"/>
      <use xlink:href="#DejaVuSans-65" x="839.599609"/>
      <use xlink:href="#DejaVuSans-72" x="901.123047"/>
      <use xlink:href="#DejaVuSans-6e" x="940.486328"/>
      <use xlink:href="#DejaVuSans-73" x="1003.865234"/>
      <use xlink:href="#DejaVuSans-20" x="1055.964844"/>
      <use xlink:href="#DejaVuSans-28" x="1087.751953"/>
      <use xlink:href="#DejaVuSans-46" x="1126.765625"/>
      <use xlink:href="#DejaVuSans-75" x="1178.785156"/>
      <use xlink:href="#DejaVuSans-6c" x="1242.164062"/>
      <use xlink:href="#DejaVuSans-6c" x="1269.947266"/>
      <use xlink:href="#DejaVuSans-20" x="1297.730469"/>
      <use xlink:href="#DejaVuSans-49" x="1329.517578"/>
      <use xlink:href="#DejaVuSans-6d" x="1359.009766"/>
      <use xlink:href="#DejaVuSans-61" x="1456.421875"/>
      <use xlink:href="#DejaVuSans-67" x="1517.701172"/>
      <use xlink:href="#DejaVuSans-65" x="1581.177734"/>
      <use xlink:href="#DejaVuSans-29" x="1642.701172"/>
     </g>
    </g>
    <g id="line2d_40">
     <path d="M 352.845312 252.475313 
L 362.845312 252.475313 
L 372.845312 252.475313 
" style="fill: none; stroke: #ff0000; stroke-width: 2; stroke-linecap: square"/>
    </g>
    <g id="text_19">
     <!-- Histogram of Oriented Gradients (Full Image) -->
     <g transform="translate(380.845312 255.975313) scale(0.1 -0.1)">
      <defs>
       <path id="DejaVuSans-48" d="M 628 4666 
L 1259 4666 
L 1259 2753 
L 3553 2753 
L 3553 4666 
L 4184 4666 
L 4184 0 
L 3553 0 
L 3553 2222 
L 1259 2222 
L 1259 0 
L 628 0 
L 628 4666 
z
" transform="scale(0.015625)"/>
       <path id="DejaVuSans-66" d="M 2375 4863 
L 2375 4384 
L 1825 4384 
Q 1516 4384 1395 4259 
Q 1275 4134 1275 3809 
L 1275 3500 
L 2222 3500 
L 2222 3053 
L 1275 3053 
L 1275 0 
L 697 0 
L 697 3053 
L 147 3053 
L 147 3500 
L 697 3500 
L 697 3744 
Q 697 4328 969 4595 
Q 1241 4863 1831 4863 
L 2375 4863 
z
" transform="scale(0.015625)"/>
       <path id="DejaVuSans-4f" d="M 2522 4238 
Q 1834 4238 1429 3725 
Q 1025 3213 1025 2328 
Q 1025 1447 1429 934 
Q 1834 422 2522 422 
Q 3209 422 3611 934 
Q 4013 1447 4013 2328 
Q 4013 3213 3611 3725 
Q 3209 4238 2522 4238 
z
M 2522 4750 
Q 3503 4750 4090 4092 
Q 4678 3434 4678 2328 
Q 4678 1225 4090 567 
Q 3503 -91 2522 -91 
Q 1538 -91 948 565 
Q 359 1222 359 2328 
Q 359 3434 948 4092 
Q 1538 4750 2522 4750 
z
" transform="scale(0.015625)"/>
       <path id="DejaVuSans-64" d="M 2906 2969 
L 2906 4863 
L 3481 4863 
L 3481 0 
L 2906 0 
L 2906 525 
Q 2725 213 2448 61 
Q 2172 -91 1784 -91 
Q 1150 -91 751 415 
Q 353 922 353 1747 
Q 353 2572 751 3078 
Q 1150 3584 1784 3584 
Q 2172 3584 2448 3432 
Q 2725 3281 2906 2969 
z
M 947 1747 
Q 947 1113 1208 752 
Q 1469 391 1925 391 
Q 2381 391 2643 752 
Q 2906 1113 2906 1747 
Q 2906 2381 2643 2742 
Q 2381 3103 1925 3103 
Q 1469 3103 1208 2742 
Q 947 2381 947 1747 
z
" transform="scale(0.015625)"/>
       <path id="DejaVuSans-47" d="M 3809 666 
L 3809 1919 
L 2778 1919 
L 2778 2438 
L 4434 2438 
L 4434 434 
Q 4069 175 3628 42 
Q 3188 -91 2688 -91 
Q 1594 -91 976 548 
Q 359 1188 359 2328 
Q 359 3472 976 4111 
Q 1594 4750 2688 4750 
Q 3144 4750 3555 4637 
Q 3966 4525 4313 4306 
L 4313 3634 
Q 3963 3931 3569 4081 
Q 3175 4231 2741 4231 
Q 1884 4231 1454 3753 
Q 1025 3275 1025 2328 
Q 1025 1384 1454 906 
Q 1884 428 2741 428 
Q 3075 428 3337 486 
Q 3600 544 3809 666 
z
" transform="scale(0.015625)"/>
      </defs>
      <use xlink:href="#DejaVuSans-48"/>
      <use xlink:href="#DejaVuSans-69" x="75.195312"/>
      <use xlink:href="#DejaVuSans-73" x="102.978516"/>
      <use xlink:href="#DejaVuSans-74" x="155.078125"/>
      <use xlink:href="#DejaVuSans-6f" x="194.287109"/>
      <use xlink:href="#DejaVuSans-67" x="255.46875"/>
      <use xlink:href="#DejaVuSans-72" x="318.945312"/>
      <use xlink:href="#DejaVuSans-61" x="360.058594"/>
      <use xlink:href="#DejaVuSans-6d" x="421.337891"/>
      <use xlink:href="#DejaVuSans-20" x="518.75"/>
      <use xlink:href="#DejaVuSans-6f" x="550.537109"/>
      <use xlink:href="#DejaVuSans-66" x="611.71875"/>
      <use xlink:href="#DejaVuSans-20" x="646.923828"/>
      <use xlink:href="#DejaVuSans-4f" x="678.710938"/>
      <use xlink:href="#DejaVuSans-72" x="757.421875"/>
      <use xlink:href="#DejaVuSans-69" x="798.535156"/>
      <use xlink:href="#DejaVuSans-65" x="826.318359"/>
      <use xlink:href="#DejaVuSans-6e" x="887.841797"/>
      <use xlink:href="#DejaVuSans-74" x="951.220703"/>
      <use xlink:href="#DejaVuSans-65" x="990.429688"/>
      <use xlink:href="#DejaVuSans-64" x="1051.953125"/>
      <use xlink:href="#DejaVuSans-20" x="1115.429688"/>
      <use xlink:href="#DejaVuSans-47" x="1147.216797"/>
      <use xlink:href="#DejaVuSans-72" x="1224.707031"/>
      <use xlink:href="#DejaVuSans-61" x="1265.820312"/>
      <use xlink:href="#DejaVuSans-64" x="1327.099609"/>
      <use xlink:href="#DejaVuSans-69" x="1390.576172"/>
      <use xlink:href="#DejaVuSans-65" x="1418.359375"/>
      <use xlink:href="#DejaVuSans-6e" x="1479.882812"/>
      <use xlink:href="#DejaVuSans-74" x="1543.261719"/>
      <use xlink:href="#DejaVuSans-73" x="1582.470703"/>
      <use xlink:href="#DejaVuSans-20" x="1634.570312"/>
      <use xlink:href="#DejaVuSans-28" x="1666.357422"/>
      <use xlink:href="#DejaVuSans-46" x="1705.371094"/>
      <use xlink:href="#DejaVuSans-75" x="1757.390625"/>
      <use xlink:href="#DejaVuSans-6c" x="1820.769531"/>
      <use xlink:href="#DejaVuSans-6c" x="1848.552734"/>
      <use xlink:href="#DejaVuSans-20" x="1876.335938"/>
      <use xlink:href="#DejaVuSans-49" x="1908.123047"/>
      <use xlink:href="#DejaVuSans-6d" x="1937.615234"/>
      <use xlink:href="#DejaVuSans-61" x="2035.027344"/>
      <use xlink:href="#DejaVuSans-67" x="2096.306641"/>
      <use xlink:href="#DejaVuSans-65" x="2159.783203"/>
      <use xlink:href="#DejaVuSans-29" x="2221.306641"/>
     </g>
    </g>
    <g id="line2d_41">
     <path d="M 352.845312 267.153437 
L 362.845312 267.153437 
L 372.845312 267.153437 
" style="fill: none; stroke: #008000; stroke-width: 2; stroke-linecap: square"/>
    </g>
    <g id="text_20">
     <!-- Dense SIFT (Full Image) -->
     <g transform="translate(380.845312 270.653437) scale(0.1 -0.1)">
      <defs>
       <path id="DejaVuSans-44" d="M 1259 4147 
L 1259 519 
L 2022 519 
Q 2988 519 3436 956 
Q 3884 1394 3884 2338 
Q 3884 3275 3436 3711 
Q 2988 4147 2022 4147 
L 1259 4147 
z
M 628 4666 
L 1925 4666 
Q 3281 4666 3915 4102 
Q 4550 3538 4550 2338 
Q 4550 1131 3912 565 
Q 3275 0 1925 0 
L 628 0 
L 628 4666 
z
" transform="scale(0.015625)"/>
       <path id="DejaVuSans-53" d="M 3425 4513 
L 3425 3897 
Q 3066 4069 2747 4153 
Q 2428 4238 2131 4238 
Q 1616 4238 1336 4038 
Q 1056 3838 1056 3469 
Q 1056 3159 1242 3001 
Q 1428 2844 1947 2747 
L 2328 2669 
Q 3034 2534 3370 2195 
Q 3706 1856 3706 1288 
Q 3706 609 3251 259 
Q 2797 -91 1919 -91 
Q 1588 -91 1214 -16 
Q 841 59 441 206 
L 441 856 
Q 825 641 1194 531 
Q 1563 422 1919 422 
Q 2459 422 2753 634 
Q 3047 847 3047 1241 
Q 3047 1584 2836 1778 
Q 2625 1972 2144 2069 
L 1759 2144 
Q 1053 2284 737 2584 
Q 422 2884 422 3419 
Q 422 4038 858 4394 
Q 1294 4750 2059 4750 
Q 2388 4750 2728 4690 
Q 3069 4631 3425 4513 
z
" transform="scale(0.015625)"/>
       <path id="DejaVuSans-54" d="M -19 4666 
L 3928 4666 
L 3928 4134 
L 2272 4134 
L 2272 0 
L 1638 0 
L 1638 4134 
L -19 4134 
L -19 4666 
z
" transform="scale(0.015625)"/>
      </defs>
      <use xlink:href="#DejaVuSans-44"/>
      <use xlink:href="#DejaVuSans-65" x="77.001953"/>
      <use xlink:href="#DejaVuSans-6e" x="138.525391"/>
      <use xlink:href="#DejaVuSans-73" x="201.904297"/>
      <use xlink:href="#DejaVuSans-65" x="254.003906"/>
      <use xlink:href="#DejaVuSans-20" x="315.527344"/>
      <use xlink:href="#DejaVuSans-53" x="347.314453"/>
      <use xlink:href="#DejaVuSans-49" x="410.791016"/>
      <use xlink:href="#DejaVuSans-46" x="440.283203"/>
      <use xlink:href="#DejaVuSans-54" x="496.052734"/>
      <use xlink:href="#DejaVuSans-20" x="557.136719"/>
      <use xlink:href="#DejaVuSans-28" x="588.923828"/>
      <use xlink:href="#DejaVuSans-46" x="627.9375"/>
      <use xlink:href="#DejaVuSans-75" x="679.957031"/>
      <use xlink:href="#DejaVuSans-6c" x="743.335938"/>
      <use xlink:href="#DejaVuSans-6c" x="771.119141"/>
      <use xlink:href="#DejaVuSans-20" x="798.902344"/>
      <use xlink:href="#DejaVuSans-49" x="830.689453"/>
      <use xlink:href="#DejaVuSans-6d" x="860.181641"/>
      <use xlink:href="#DejaVuSans-61" x="957.59375"/>
      <use xlink:href="#DejaVuSans-67" x="1018.873047"/>
      <use xlink:href="#DejaVuSans-65" x="1082.349609"/>
      <use xlink:href="#DejaVuSans-29" x="1143.873047"/>
     </g>
    </g>
    <g id="line2d_42">
     <path d="M 352.845312 281.831563 
L 362.845312 281.831563 
L 372.845312 281.831563 
" style="fill: none; stroke: #bfbf00; stroke-width: 2; stroke-linecap: square"/>
    </g>
    <g id="text_21">
     <!-- Local Binary Patterns - Viola Jones -->
     <g transform="translate(380.845312 285.331563) scale(0.1 -0.1)">
      <defs>
       <path id="DejaVuSans-2d" d="M 313 2009 
L 1997 2009 
L 1997 1497 
L 313 1497 
L 313 2009 
z
" transform="scale(0.015625)"/>
       <path id="DejaVuSans-56" d="M 1831 0 
L 50 4666 
L 709 4666 
L 2188 738 
L 3669 4666 
L 4325 4666 
L 2547 0 
L 1831 0 
z
" transform="scale(0.015625)"/>
       <path id="DejaVuSans-4a" d="M 628 4666 
L 1259 4666 
L 1259 325 
Q 1259 -519 939 -900 
Q 619 -1281 -91 -1281 
L -331 -1281 
L -331 -750 
L -134 -750 
Q 284 -750 456 -515 
Q 628 -281 628 325 
L 628 4666 
z
" transform="scale(0.015625)"/>
      </defs>
      <use xlink:href="#DejaVuSans-4c"/>
      <use xlink:href="#DejaVuSans-6f" x="53.962891"/>
      <use xlink:href="#DejaVuSans-63" x="115.144531"/>
      <use xlink:href="#DejaVuSans-61" x="170.125"/>
      <use xlink:href="#DejaVuSans-6c" x="231.404297"/>
      <use xlink:href="#DejaVuSans-20" x="259.1875"/>
      <use xlink:href="#DejaVuSans-42" x="290.974609"/>
      <use xlink:href="#DejaVuSans-69" x="359.578125"/>
      <use xlink:href="#DejaVuSans-6e" x="387.361328"/>
      <use xlink:href="#DejaVuSans-61" x="450.740234"/>
      <use xlink:href="#DejaVuSans-72" x="512.019531"/>
      <use xlink:href="#DejaVuSans-79" x="553.132812"/>
      <use xlink:href="#DejaVuSans-20" x="612.3125"/>
      <use xlink:href="#DejaVuSans-50" x="644.099609"/>
      <use xlink:href="#DejaVuSans-61" x="699.902344"/>
      <use xlink:href="#DejaVuSans-74" x="761.181641"/>
      <use xlink:href="#DejaVuSans-74" x="800.390625"/>
      <use xlink:href="#DejaVuSans-65" x="839.599609"/>
      <use xlink:href="#DejaVuSans-72" x="901.123047"/>
      <use xlink:href="#DejaVuSans-6e" x="940.486328"/>
      <use xlink:href="#DejaVuSans-73" x="1003.865234"/>
      <use xlink:href="#DejaVuSans-20" x="1055.964844"/>
      <use xlink:href="#DejaVuSans-2d" x="1087.751953"/>
      <use xlink:href="#DejaVuSans-20" x="1123.835938"/>
      <use xlink:href="#DejaVuSans-56" x="1155.623047"/>
      <use xlink:href="#DejaVuSans-69" x="1221.78125"/>
      <use xlink:href="#DejaVuSans-6f" x="1249.564453"/>
      <use xlink:href="#DejaVuSans-6c" x="1310.746094"/>
      <use xlink:href="#DejaVuSans-61" x="1338.529297"/>
      <use xlink:href="#DejaVuSans-20" x="1399.808594"/>
      <use xlink:href="#DejaVuSans-4a" x="1431.595703"/>
      <use xlink:href="#DejaVuSans-6f" x="1461.087891"/>
      <use xlink:href="#DejaVuSans-6e" x="1522.269531"/>
      <use xlink:href="#DejaVuSans-65" x="1585.648438"/>
      <use xlink:href="#DejaVuSans-73" x="1647.171875"/>
     </g>
    </g>
    <g id="line2d_43">
     <path d="M 352.845312 296.509688 
L 362.845312 296.509688 
L 372.845312 296.509688 
" style="fill: none; stroke: #bf00bf; stroke-width: 2; stroke-linecap: square"/>
    </g>
    <g id="text_22">
     <!-- Histogram of Oriented Gradients - Viola Jones -->
     <g transform="translate(380.845312 300.009688) scale(0.1 -0.1)">
      <use xlink:href="#DejaVuSans-48"/>
      <use xlink:href="#DejaVuSans-69" x="75.195312"/>
      <use xlink:href="#DejaVuSans-73" x="102.978516"/>
      <use xlink:href="#DejaVuSans-74" x="155.078125"/>
      <use xlink:href="#DejaVuSans-6f" x="194.287109"/>
      <use xlink:href="#DejaVuSans-67" x="255.46875"/>
      <use xlink:href="#DejaVuSans-72" x="318.945312"/>
      <use xlink:href="#DejaVuSans-61" x="360.058594"/>
      <use xlink:href="#DejaVuSans-6d" x="421.337891"/>
      <use xlink:href="#DejaVuSans-20" x="518.75"/>
      <use xlink:href="#DejaVuSans-6f" x="550.537109"/>
      <use xlink:href="#DejaVuSans-66" x="611.71875"/>
      <use xlink:href="#DejaVuSans-20" x="646.923828"/>
      <use xlink:href="#DejaVuSans-4f" x="678.710938"/>
      <use xlink:href="#DejaVuSans-72" x="757.421875"/>
      <use xlink:href="#DejaVuSans-69" x="798.535156"/>
      <use xlink:href="#DejaVuSans-65" x="826.318359"/>
      <use xlink:href="#DejaVuSans-6e" x="887.841797"/>
      <use xlink:href="#DejaVuSans-74" x="951.220703"/>
      <use xlink:href="#DejaVuSans-65" x="990.429688"/>
      <use xlink:href="#DejaVuSans-64" x="1051.953125"/>
      <use xlink:href="#DejaVuSans-20" x="1115.429688"/>
      <use xlink:href="#DejaVuSans-47" x="1147.216797"/>
      <use xlink:href="#DejaVuSans-72" x="1224.707031"/>
      <use xlink:href="#DejaVuSans-61" x="1265.820312"/>
      <use xlink:href="#DejaVuSans-64" x="1327.099609"/>
      <use xlink:href="#DejaVuSans-69" x="1390.576172"/>
      <use xlink:href="#DejaVuSans-65" x="1418.359375"/>
      <use xlink:href="#DejaVuSans-6e" x="1479.882812"/>
      <use xlink:href="#DejaVuSans-74" x="1543.261719"/>
      <use xlink:href="#DejaVuSans-73" x="1582.470703"/>
      <use xlink:href="#DejaVuSans-20" x="1634.570312"/>
      <use xlink:href="#DejaVuSans-2d" x="1666.357422"/>
      <use xlink:href="#DejaVuSans-20" x="1702.441406"/>
      <use xlink:href="#DejaVuSans-56" x="1734.228516"/>
      <use xlink:href="#DejaVuSans-69" x="1800.386719"/>
      <use xlink:href="#DejaVuSans-6f" x="1828.169922"/>
      <use xlink:href="#DejaVuSans-6c" x="1889.351562"/>
      <use xlink:href="#DejaVuSans-61" x="1917.134766"/>
      <use xlink:href="#DejaVuSans-20" x="1978.414062"/>
      <use xlink:href="#DejaVuSans-4a" x="2010.201172"/>
      <use xlink:href="#DejaVuSans-6f" x="2039.693359"/>
      <use xlink:href="#DejaVuSans-6e" x="2100.875"/>
      <use xlink:href="#DejaVuSans-65" x="2164.253906"/>
      <use xlink:href="#DejaVuSans-73" x="2225.777344"/>
     </g>
    </g>
    <g id="line2d_44">
     <path d="M 352.845312 311.187813 
L 362.845312 311.187813 
L 372.845312 311.187813 
" style="fill: none; stroke: #00bfbf; stroke-width: 2; stroke-linecap: square"/>
    </g>
    <g id="text_23">
     <!-- Dense SIFT - Viola Jones -->
     <g transform="translate(380.845312 314.687813) scale(0.1 -0.1)">
      <use xlink:href="#DejaVuSans-44"/>
      <use xlink:href="#DejaVuSans-65" x="77.001953"/>
      <use xlink:href="#DejaVuSans-6e" x="138.525391"/>
      <use xlink:href="#DejaVuSans-73" x="201.904297"/>
      <use xlink:href="#DejaVuSans-65" x="254.003906"/>
      <use xlink:href="#DejaVuSans-20" x="315.527344"/>
      <use xlink:href="#DejaVuSans-53" x="347.314453"/>
      <use xlink:href="#DejaVuSans-49" x="410.791016"/>
      <use xlink:href="#DejaVuSans-46" x="440.283203"/>
      <use xlink:href="#DejaVuSans-54" x="496.052734"/>
      <use xlink:href="#DejaVuSans-20" x="557.136719"/>
      <use xlink:href="#DejaVuSans-2d" x="588.923828"/>
      <use xlink:href="#DejaVuSans-20" x="625.007812"/>
      <use xlink:href="#DejaVuSans-56" x="656.794922"/>
      <use xlink:href="#DejaVuSans-69" x="722.953125"/>
      <use xlink:href="#DejaVuSans-6f" x="750.736328"/>
      <use xlink:href="#DejaVuSans-6c" x="811.917969"/>
      <use xlink:href="#DejaVuSans-61" x="839.701172"/>
      <use xlink:href="#DejaVuSans-20" x="900.980469"/>
      <use xlink:href="#DejaVuSans-4a" x="932.767578"/>
      <use xlink:href="#DejaVuSans-6f" x="962.259766"/>
      <use xlink:href="#DejaVuSans-6e" x="1023.441406"/>
      <use xlink:href="#DejaVuSans-65" x="1086.820312"/>
      <use xlink:href="#DejaVuSans-73" x="1148.34375"/>
     </g>
    </g>
    <g id="line2d_45">
     <path d="M 352.845312 325.865938 
L 362.845312 325.865938 
L 372.845312 325.865938 
" style="fill: none; stroke: #ffa500; stroke-width: 2; stroke-linecap: square"/>
    </g>
    <g id="text_24">
     <!-- InsightFace (Full Image) -->
     <g transform="translate(380.845312 329.365938) scale(0.1 -0.1)">
      <use xlink:href="#DejaVuSans-49"/>
      <use xlink:href="#DejaVuSans-6e" x="29.492188"/>
      <use xlink:href="#DejaVuSans-73" x="92.871094"/>
      <use xlink:href="#DejaVuSans-69" x="144.970703"/>
      <use xlink:href="#DejaVuSans-67" x="172.753906"/>
      <use xlink:href="#DejaVuSans-68" x="236.230469"/>
      <use xlink:href="#DejaVuSans-74" x="299.609375"/>
      <use xlink:href="#DejaVuSans-46" x="338.818359"/>
      <use xlink:href="#DejaVuSans-61" x="387.212891"/>
      <use xlink:href="#DejaVuSans-63" x="448.492188"/>
      <use xlink:href="#DejaVuSans-65" x="503.472656"/>
      <use xlink:href="#DejaVuSans-20" x="564.996094"/>
      <use xlink:href="#DejaVuSans-28" x="596.783203"/>
      <use xlink:href="#DejaVuSans-46" x="635.796875"/>
      <use xlink:href="#DejaVuSans-75" x="687.816406"/>
      <use xlink:href="#DejaVuSans-6c" x="751.195312"/>
      <use xlink:href="#DejaVuSans-6c" x="778.978516"/>
      <use xlink:href="#DejaVuSans-20" x="806.761719"/>
      <use xlink:href="#DejaVuSans-49" x="838.548828"/>
      <use xlink:href="#DejaVuSans-6d" x="868.041016"/>
      <use xlink:href="#DejaVuSans-61" x="965.453125"/>
      <use xlink:href="#DejaVuSans-67" x="1026.732422"/>
      <use xlink:href="#DejaVuSans-65" x="1090.208984"/>
      <use xlink:href="#DejaVuSans-29" x="1151.732422"/>
     </g>
    </g>
    <g id="line2d_46">
     <path d="M 352.845312 340.544062 
L 362.845312 340.544062 
L 372.845312 340.544062 
" style="fill: none; stroke: #00ff00; stroke-width: 2; stroke-linecap: square"/>
    </g>
    <g id="text_25">
     <!-- Facenet (Full Image) -->
     <g transform="translate(380.845312 344.044062) scale(0.1 -0.1)">
      <use xlink:href="#DejaVuSans-46"/>
      <use xlink:href="#DejaVuSans-61" x="48.394531"/>
      <use xlink:href="#DejaVuSans-63" x="109.673828"/>
      <use xlink:href="#DejaVuSans-65" x="164.654297"/>
      <use xlink:href="#DejaVuSans-6e" x="226.177734"/>
      <use xlink:href="#DejaVuSans-65" x="289.556641"/>
      <use xlink:href="#DejaVuSans-74" x="351.080078"/>
      <use xlink:href="#DejaVuSans-20" x="390.289062"/>
      <use xlink:href="#DejaVuSans-28" x="422.076172"/>
      <use xlink:href="#DejaVuSans-46" x="461.089844"/>
      <use xlink:href="#DejaVuSans-75" x="513.109375"/>
      <use xlink:href="#DejaVuSans-6c" x="576.488281"/>
      <use xlink:href="#DejaVuSans-6c" x="604.271484"/>
      <use xlink:href="#DejaVuSans-20" x="632.054688"/>
      <use xlink:href="#DejaVuSans-49" x="663.841797"/>
      <use xlink:href="#DejaVuSans-6d" x="693.333984"/>
      <use xlink:href="#DejaVuSans-61" x="790.746094"/>
      <use xlink:href="#DejaVuSans-67" x="852.025391"/>
      <use xlink:href="#DejaVuSans-65" x="915.501953"/>
      <use xlink:href="#DejaVuSans-29" x="977.025391"/>
     </g>
    </g>
    <g id="line2d_47">
     <path d="M 352.845312 355.222188 
L 362.845312 355.222188 
L 372.845312 355.222188 
" style="fill: none; stroke: #ffc0cb; stroke-width: 2; stroke-linecap: square"/>
    </g>
    <g id="text_26">
     <!-- InsightFace Face Detection and Embedding -->
     <g transform="translate(380.845312 358.722188) scale(0.1 -0.1)">
      <defs>
       <path id="DejaVuSans-45" d="M 628 4666 
L 3578 4666 
L 3578 4134 
L 1259 4134 
L 1259 2753 
L 3481 2753 
L 3481 2222 
L 1259 2222 
L 1259 531 
L 3634 531 
L 3634 0 
L 628 0 
L 628 4666 
z
" transform="scale(0.015625)"/>
       <path id="DejaVuSans-62" d="M 3116 1747 
Q 3116 2381 2855 2742 
Q 2594 3103 2138 3103 
Q 1681 3103 1420 2742 
Q 1159 2381 1159 1747 
Q 1159 1113 1420 752 
Q 1681 391 2138 391 
Q 2594 391 2855 752 
Q 3116 1113 3116 1747 
z
M 1159 2969 
Q 1341 3281 1617 3432 
Q 1894 3584 2278 3584 
Q 2916 3584 3314 3078 
Q 3713 2572 3713 1747 
Q 3713 922 3314 415 
Q 2916 -91 2278 -91 
Q 1894 -91 1617 61 
Q 1341 213 1159 525 
L 1159 0 
L 581 0 
L 581 4863 
L 1159 4863 
L 1159 2969 
z
" transform="scale(0.015625)"/>
      </defs>
      <use xlink:href="#DejaVuSans-49"/>
      <use xlink:href="#DejaVuSans-6e" x="29.492188"/>
      <use xlink:href="#DejaVuSans-73" x="92.871094"/>
      <use xlink:href="#DejaVuSans-69" x="144.970703"/>
      <use xlink:href="#DejaVuSans-67" x="172.753906"/>
      <use xlink:href="#DejaVuSans-68" x="236.230469"/>
      <use xlink:href="#DejaVuSans-74" x="299.609375"/>
      <use xlink:href="#DejaVuSans-46" x="338.818359"/>
      <use xlink:href="#DejaVuSans-61" x="387.212891"/>
      <use xlink:href="#DejaVuSans-63" x="448.492188"/>
      <use xlink:href="#DejaVuSans-65" x="503.472656"/>
      <use xlink:href="#DejaVuSans-20" x="564.996094"/>
      <use xlink:href="#DejaVuSans-46" x="596.783203"/>
      <use xlink:href="#DejaVuSans-61" x="645.177734"/>
      <use xlink:href="#DejaVuSans-63" x="706.457031"/>
      <use xlink:href="#DejaVuSans-65" x="761.4375"/>
      <use xlink:href="#DejaVuSans-20" x="822.960938"/>
      <use xlink:href="#DejaVuSans-44" x="854.748047"/>
      <use xlink:href="#DejaVuSans-65" x="931.75"/>
      <use xlink:href="#DejaVuSans-74" x="993.273438"/>
      <use xlink:href="#DejaVuSans-65" x="1032.482422"/>
      <use xlink:href="#DejaVuSans-63" x="1094.005859"/>
      <use xlink:href="#DejaVuSans-74" x="1148.986328"/>
      <use xlink:href="#DejaVuSans-69" x="1188.195312"/>
      <use xlink:href="#DejaVuSans-6f" x="1215.978516"/>
      <use xlink:href="#DejaVuSans-6e" x="1277.160156"/>
      <use xlink:href="#DejaVuSans-20" x="1340.539062"/>
      <use xlink:href="#DejaVuSans-61" x="1372.326172"/>
      <use xlink:href="#DejaVuSans-6e" x="1433.605469"/>
      <use xlink:href="#DejaVuSans-64" x="1496.984375"/>
      <use xlink:href="#DejaVuSans-20" x="1560.460938"/>
      <use xlink:href="#DejaVuSans-45" x="1592.248047"/>
      <use xlink:href="#DejaVuSans-6d" x="1655.431641"/>
      <use xlink:href="#DejaVuSans-62" x="1752.84375"/>
      <use xlink:href="#DejaVuSans-65" x="1816.320312"/>
      <use xlink:href="#DejaVuSans-64" x="1877.84375"/>
      <use xlink:href="#DejaVuSans-64" x="1941.320312"/>
      <use xlink:href="#DejaVuSans-69" x="2004.796875"/>
      <use xlink:href="#DejaVuSans-6e" x="2032.580078"/>
      <use xlink:href="#DejaVuSans-67" x="2095.958984"/>
     </g>
    </g>
    <g id="line2d_48">
     <path d="M 352.845312 369.900312 
L 362.845312 369.900312 
L 372.845312 369.900312 
" style="fill: none; stroke: #a52a2a; stroke-width: 2; stroke-linecap: square"/>
    </g>
    <g id="text_27">
     <!-- InsightFace Face Detection and Facenet Embedding -->
     <g transform="translate(380.845312 373.400312) scale(0.1 -0.1)">
      <use xlink:href="#DejaVuSans-49"/>
      <use xlink:href="#DejaVuSans-6e" x="29.492188"/>
      <use xlink:href="#DejaVuSans-73" x="92.871094"/>
      <use xlink:href="#DejaVuSans-69" x="144.970703"/>
      <use xlink:href="#DejaVuSans-67" x="172.753906"/>
      <use xlink:href="#DejaVuSans-68" x="236.230469"/>
      <use xlink:href="#DejaVuSans-74" x="299.609375"/>
      <use xlink:href="#DejaVuSans-46" x="338.818359"/>
      <use xlink:href="#DejaVuSans-61" x="387.212891"/>
      <use xlink:href="#DejaVuSans-63" x="448.492188"/>
      <use xlink:href="#DejaVuSans-65" x="503.472656"/>
      <use xlink:href="#DejaVuSans-20" x="564.996094"/>
      <use xlink:href="#DejaVuSans-46" x="596.783203"/>
      <use xlink:href="#DejaVuSans-61" x="645.177734"/>
      <use xlink:href="#DejaVuSans-63" x="706.457031"/>
      <use xlink:href="#DejaVuSans-65" x="761.4375"/>
      <use xlink:href="#DejaVuSans-20" x="822.960938"/>
      <use xlink:href="#DejaVuSans-44" x="854.748047"/>
      <use xlink:href="#DejaVuSans-65" x="931.75"/>
      <use xlink:href="#DejaVuSans-74" x="993.273438"/>
      <use xlink:href="#DejaVuSans-65" x="1032.482422"/>
      <use xlink:href="#DejaVuSans-63" x="1094.005859"/>
      <use xlink:href="#DejaVuSans-74" x="1148.986328"/>
      <use xlink:href="#DejaVuSans-69" x="1188.195312"/>
      <use xlink:href="#DejaVuSans-6f" x="1215.978516"/>
      <use xlink:href="#DejaVuSans-6e" x="1277.160156"/>
      <use xlink:href="#DejaVuSans-20" x="1340.539062"/>
      <use xlink:href="#DejaVuSans-61" x="1372.326172"/>
      <use xlink:href="#DejaVuSans-6e" x="1433.605469"/>
      <use xlink:href="#DejaVuSans-64" x="1496.984375"/>
      <use xlink:href="#DejaVuSans-20" x="1560.460938"/>
      <use xlink:href="#DejaVuSans-46" x="1592.248047"/>
      <use xlink:href="#DejaVuSans-61" x="1640.642578"/>
      <use xlink:href="#DejaVuSans-63" x="1701.921875"/>
      <use xlink:href="#DejaVuSans-65" x="1756.902344"/>
      <use xlink:href="#DejaVuSans-6e" x="1818.425781"/>
      <use xlink:href="#DejaVuSans-65" x="1881.804688"/>
      <use xlink:href="#DejaVuSans-74" x="1943.328125"/>
      <use xlink:href="#DejaVuSans-20" x="1982.537109"/>
      <use xlink:href="#DejaVuSans-45" x="2014.324219"/>
      <use xlink:href="#DejaVuSans-6d" x="2077.507812"/>
      <use xlink:href="#DejaVuSans-62" x="2174.919922"/>
      <use xlink:href="#DejaVuSans-65" x="2238.396484"/>
      <use xlink:href="#DejaVuSans-64" x="2299.919922"/>
      <use xlink:href="#DejaVuSans-64" x="2363.396484"/>
      <use xlink:href="#DejaVuSans-69" x="2426.873047"/>
      <use xlink:href="#DejaVuSans-6e" x="2454.65625"/>
      <use xlink:href="#DejaVuSans-67" x="2518.035156"/>
     </g>
    </g>
   </g>
  </g>
 </g>
 <defs>
  <clipPath id="p845fce6e0b">
   <rect x="90" y="51.84" width="558" height="332.64"/>
  </clipPath>
 </defs>
</svg>
